<svg data-photo-mask-ready="true" width="595" height="842" viewBox="0 0 595 842" fill="none" xmlns="http://www.w3.org/2000/svg">
  <defs>
    <clipPath id="clip-foto-aqui" clipPathUnits="userSpaceOnUse">
      <path id="photo-mask" fill-rule="evenodd" clip-rule="evenodd" d="M0 259.773H245.16H348.306L566.092 455.879H595V506.29H331.758L303.709 479.097H0V259.773Z" />
    </clipPath>
    <clipPath id="clip0_283_67">
      <rect width="595" height="842" fill="white" />
    </clipPath>
  </defs>

  <g id="A4 - 11" clip-path="url(#clip0_283_67)">
    <rect id="background-shape" width="595" height="842" fill="#FFFFFF" />

    <g id="decorative-shapes">
      <path d="M0 0H595V74.176H0V0Z" fill="#FFFFFF" />
      <path id="accent-shape" d="M0 74.176H447.123L438.007 83.692H0V74.176Z" fill="#D4D5D7" />
      <path d="M0 585.391H199.373L220.145 621.469H595V831.311H0V585.391Z" fill="#FFFFFF" />
    </g>

    <path id="primary-shape" d="M466.851 53.355L514.941 0H595V455.879H566.092L348.306 259.773H0V83.692H438.007L466.851 53.355Z" fill="#1AA6BE" />
    <path id="background-shape-dark" d="M348.306 259.773H0V585.391H199.373L220.145 621.469H595V455.879H566.092L348.306 259.773Z" fill="#524848" opacity="0.94" />

    <g id="cover-photo" clip-path="url(#clip-foto-aqui)" data-photo-mask="true" data-photo-bounds="0 259.773 595 246.517">
      <g id="foto_aqui_placeholder">
        <path d="M0 259.773H245.16H348.306L566.092 455.879H595V506.29H331.758L303.709 479.097H0V259.773Z" fill="#524848" opacity="0.36" />
        <g id="foto_aqui_icon" opacity="0.8" transform="translate(266 356)">
          <rect x="0" y="0" width="64" height="50" rx="8" fill="none" stroke="#FFFFFF" stroke-width="4" />
          <circle cx="47" cy="14" r="6" fill="#FFFFFF" />
          <path d="M8 41L24 26L36 36L44 29L58 42" stroke="#FFFFFF" stroke-width="4" stroke-linecap="round" stroke-linejoin="round" />
        </g>
      </g>
      <g id="cover-photo-layer" data-dynamic-photo-layer="true"></g>
    </g>

    <path id="secondary-shape" d="M0 479.102H303.715L331.758 506.287H595V621.474H220.145L199.373 585.397H0V479.102Z" fill="#DD400B" />
    <path id="cor_primaria" d="M595 506.29V621.472H220.149L199.377 585.395H0V506.29H595ZM595 517.348H0V574.337H205.766L226.535 610.414H595V517.348Z" fill="#1AA6BE" />
    <path id="cor_secundaria" d="M566.092 455.879H595V506.29H622.436L566.092 455.879Z" fill="#DD400B" />

    <g id="company-logo">
      <rect x="35" y="17" width="185" height="44" rx="8" fill="#FFFFFF" opacity="0" />
      <text x="42" y="42" font-family="Arial, Helvetica, sans-serif" font-size="24" font-weight="700" fill="#111111">SEU LOGO AQUI</text>
    </g>

    <g id="proposal-title-group">
      <text id="proposal-title" x="42" y="192" font-family="Arial, Helvetica, sans-serif" font-size="54" font-weight="900" letter-spacing="1" fill="#FFFFFF">PROPOSTA</text>
      <text id="proposal-subtitle" x="42" y="328" font-family="Arial, Helvetica, sans-serif" font-size="40" font-weight="900" letter-spacing="1" fill="#FFFFFF">COMERCIAL</text>
      <text x="42" y="252" font-family="Arial, Helvetica, sans-serif" font-size="28" font-weight="700" fill="#FFFFFF">Projeto de energia solar</text>
      <text x="42" y="226" font-family="Arial, Helvetica, sans-serif" font-size="22" font-weight="700" fill="#FFFFFF">Economia que impulsiona</text>
      <rect x="42" y="202" width="325" height="4" fill="#D4D5D7" />
    </g>

    <g id="benefits-group">
      <text x="37" y="680" font-family="Arial, Helvetica, sans-serif" font-size="28" font-weight="900" fill="#DD400B">ENERGIA LIMPA</text>
      <path d="M236 633L223 688" stroke="#DD400B" stroke-width="7" stroke-linecap="round" />
      <text x="258" y="680" font-family="Arial, Helvetica, sans-serif" font-size="26" font-weight="900" fill="#DD400B">VALORIZA SEU IMÓVEL</text>
    </g>

    <g id="client-info" fill="#FFFFFF" font-family="Arial, Helvetica, sans-serif">
      <g id="client-name">
        <circle cx="40" cy="727" r="13" fill="#FFFFFF" />
        <path d="M35 735C35.2 731 37 728 40 728C43 728 45 731 45.2 735" fill="#524848" />
        <circle cx="40" cy="723" r="4" fill="#524848" />
        <text x="67" y="731" font-size="24" font-weight="800">Cliente</text>
        <text x="67" y="749" font-size="13" font-weight="500">Nome Sobrenome</text>
      </g>

      <g id="city-state">
        <circle cx="232" cy="727" r="13" fill="#FFFFFF" />
        <path d="M232 718C227 718 224 722 224 726C224 732 232 738 232 738C232 738 240 732 240 726C240 722 237 718 232 718ZM232 728.5C230.5 728.5 229.3 727.3 229.3 725.8C229.3 724.3 230.5 723.1 232 723.1C233.5 723.1 234.7 724.3 234.7 725.8C234.7 727.3 233.5 728.5 232 728.5Z" fill="#524848" />
        <text x="257" y="731" font-size="24" font-weight="800">Localização</text>
        <text x="257" y="749" font-size="13" font-weight="500">Cidade - Estado</text>
      </g>

      <g id="project-power">
        <circle cx="40" cy="779" r="13" fill="#FFFFFF" />
        <path d="M35 781H39L37 788L45 777H41L43 770L35 781Z" fill="#524848" />
        <text x="67" y="783" font-size="24" font-weight="800">Potência nominal</text>
        <text x="67" y="801" font-size="13" font-weight="500">0.00 kWp</text>
      </g>

      <g id="proposal-date">
        <circle cx="346" cy="779" r="13" fill="#FFFFFF" />
        <rect x="339" y="772" width="14" height="13" rx="2" fill="#524848" />
        <rect x="339" y="775" width="14" height="2" fill="#FFFFFF" opacity="0.55" />
        <text x="372" y="783" font-size="24" font-weight="800">Data</text>
        <text x="372" y="801" font-size="13" font-weight="500">DD / MM / AA</text>
      </g>
    </g>

    <text x="420" y="812" font-family="Arial, Helvetica, sans-serif" font-size="13" font-weight="700" fill="#FFFFFF">validade: 7 dias</text>
  </g>
</svg>
