<svg data-photo-mask-ready="true" width="595" height="842" viewBox="0 0 595 842" fill="none" xmlns="http://www.w3.org/2000/svg">
  <defs>
    <clipPath id="clip0_283_67">
      <rect width="595" height="842" fill="white" />
    </clipPath>
    <clipPath id="clip-foto-aqui" clipPathUnits="userSpaceOnUse">
      <path id="photo-mask" d="M0 83H595V505H456L470 482H552L595 407L552 332H470L429 261H343L311 318C292 317 272 316 252 315C214 314 175 313 137 314C70 316 15 321 0 333V83Z" />
    </clipPath>
  </defs>

  <g id="A4 - 11" clip-path="url(#clip0_283_67)">
    <rect id="background-shape" width="595" height="842" fill="#FFFFFF" />

    <g id="decorative-shapes">
      <rect x="0" y="0" width="595" height="74" fill="#FFFFFF" />
      <rect x="0" y="74" width="595" height="9" fill="#D4D5D7" />
    </g>

    <g id="cover-photo" clip-path="url(#clip-foto-aqui)" data-photo-mask="true" data-photo-bounds="0 83 595 422">
      <g id="foto_aqui_placeholder">
        <rect x="0" y="83" width="595" height="422" fill="#000000" />
        <g id="foto_aqui_icon" opacity="0.85" fill="#524848" transform="translate(92 118)">
          <path d="M129.2 46.7C129.2 54.4 123 60.7 115.3 60.7C107.6 60.7 101.3 54.4 101.3 46.7C101.3 39 107.6 32.7 115.3 32.7C123 32.7 129.2 39 129.2 46.7Z" />
          <path fill-rule="evenodd" clip-rule="evenodd" d="M43.2 173.3L127.6 152.1L162.9 161.6C169.1 163.3 175.6 159.5 177.3 153.2L206.6 43.5C208.3 37.2 204.6 30.8 198.3 29.1L88.8 -0.3C82.6 -2 76.1 1.7 74.4 8L69.9 25.2L9.9 40.3C3.6 41.8 -0.2 48.2 1.4 54.5L29 164.8C30.5 171.1 36.9 174.9 43.2 173.3ZM177.6 52.5C179.2 46.2 175.5 39.8 169.3 38.1L99.7 19.4C93.9 17.9 88 20.9 85.6 26.4L69 88.8L84.6 80.5C89.4 77.9 95.4 78.8 99.2 82.9L116.2 101L150.7 73.9C156.3 69.5 164.5 70.9 168.4 77.2L186 106L199.6 55.2L177.6 52.5Z" />
          <path d="M18 55L44 159L86 149L54 140L34 61L66 53L71 34L18 55Z" />
        </g>
      </g>
      <g id="cover-photo-layer" data-dynamic-photo-layer="true"></g>
    </g>

    <path id="primary-shape" d="M0 333C16 327 61 316 137 314C175 313 216 314 252 315L344 261H429L470 332H552L595 407V505H456L470 482H552L513 407H488L445 460H359L332 506H306L292 470L258 409L301 336C260 335 226 335 196 336L86 342C54 346 27 351 0 363V333Z" fill="#1AA6BE" />
    <path id="secondary-shape" d="M0 363C27 351 54 346 86 342L137 314C175 313 216 314 252 315L196 336C150 337 114 339 86 342C54 346 27 351 0 363Z" fill="#DD400B" />
    <path id="background-shape-light" d="M0 506H306L320 610H595V585H327L306 622H220L199 585H0V506Z" fill="#D4D5D7" />
    <path id="primary-shape-outline" fill-rule="evenodd" clip-rule="evenodd" d="M595 506V621H327L306 658H220L199 621H0V506H595ZM584 517H11V610H206L227 646H300L321 610H584V517Z" fill="#1AA6BE" />
    <path id="accent-shape" d="M0 486C112 452 213 457 263 468C273 470 281 475 288 483L306 506H0V486Z" fill="#1AA6BE" />

    <g id="company-logo">
      <text x="41" y="45" font-family="Arial, Helvetica, sans-serif" font-size="21" font-weight="700" fill="#1AA6BE">SEU LOGO AQUI</text>
    </g>

    <g id="proposal-title-group" font-family="Arial, Helvetica, sans-serif">
      <text id="proposal-title" x="38" y="406" font-size="41" font-weight="900" letter-spacing="1" fill="#1AA6BE">PROPOSTA</text>
      <text id="proposal-subtitle" x="38" y="451" font-size="41" font-weight="900" letter-spacing="1" fill="#1AA6BE">COMERCIAL</text>
      <path d="M42 460C88 464 187 464 288 460" stroke="#DD400B" stroke-width="7" stroke-linecap="round" />
      <text x="352" y="568" font-size="16" font-weight="800" fill="#DD400B">PROJETO DE ENERGIA SOLAR</text>
      <path d="M352 575H573" stroke="#DD400B" stroke-width="3" stroke-linecap="round" />
    </g>

    <g id="benefits-group" font-family="Arial, Helvetica, sans-serif" fill="#FFFFFF">
      <g id="benefit-energia-limpa" transform="translate(302 262)">
        <path d="M42 0H126L168 72L126 144H42L0 72L42 0Z" fill="#1AA6BE" stroke="#D4D5D7" stroke-width="8" />
        <path d="M62 34H96L85 76H51L62 34ZM62 34L51 76M73 34L62 76M84 34L73 76M95 34L84 76M56 49H92M53 63H88" stroke="#FFFFFF" stroke-width="2" />
        <circle cx="101" cy="30" r="8" stroke="#FFFFFF" stroke-width="2" />
        <text x="84" y="92" text-anchor="middle" font-size="13">ENERGIA LIMPA</text>
      </g>

      <g id="benefit-imovel" transform="translate(431 366)">
        <path d="M37 0H111L148 64L111 128H37L0 64L37 0Z" fill="#1AA6BE" stroke="#D4D5D7" stroke-width="8" />
        <path d="M54 64H82V90H54V64ZM93 72H105V90H93V72ZM58 56L72 40H102L88 56H58ZM72 40L66 56M82 40L76 56M92 40L86 56M61 48H96" stroke="#FFFFFF" stroke-width="2" fill="none" />
        <text x="74" y="83" text-anchor="middle" font-size="12">VALORIZA SEU</text>
        <text x="74" y="101" text-anchor="middle" font-size="12">IMÓVEL</text>
      </g>

      <g id="benefit-energia" transform="translate(311 410)">
        <path d="M42 0H126L168 72L126 144H42L0 72L42 0Z" fill="#1AA6BE" />
        <circle cx="84" cy="72" r="22" stroke="#FFFFFF" stroke-width="3" />
        <path d="M79 57L69 78H82L76 91L99 66H86L92 57H79Z" stroke="#FFFFFF" stroke-width="2" fill="none" />
        <path d="M56 72C44 66 39 55 43 44C55 49 60 58 56 72ZM112 72C124 66 129 55 125 44C113 49 108 58 112 72ZM58 76C50 80 45 86 43 94M110 76C118 80 123 86 125 94" stroke="#FFFFFF" stroke-width="3" fill="none" />
        <text x="84" y="88" text-anchor="middle" font-size="12">ENERGIA LIMPA</text>
      </g>

      <g id="benefit-economia" transform="translate(190 484)">
        <path d="M37 0H111L148 64L111 128H37L0 64L37 0Z" fill="#1AA6BE" stroke="#D4D5D7" stroke-width="8" />
        <path d="M42 74H52V90H42V74ZM58 65H68V90H58V65ZM74 54H84V90H74V54ZM95 34V52H113M50 58L72 36L85 48L110 23" stroke="#FFFFFF" stroke-width="3" fill="none" stroke-linecap="round" stroke-linejoin="round" />
        <text x="74" y="95" text-anchor="middle" font-size="12">ECONOMIA QUE</text>
        <text x="74" y="112" text-anchor="middle" font-size="12">IMPULSIONA</text>
      </g>
    </g>

    <g id="dynamic-info" font-family="Arial, Helvetica, sans-serif">
      <g id="client-name">
        <circle cx="54" cy="657" r="16" fill="none" stroke="#000000" stroke-width="2" />
        <circle cx="54" cy="651" r="5" fill="#1AA6BE" stroke="#000000" stroke-width="1" />
        <path d="M45 666C46 659 62 659 63 666" fill="#1AA6BE" stroke="#000000" stroke-width="1" />
        <text x="75" y="653" font-size="13" font-weight="900" fill="#1AA6BE">CLIENTE</text>
        <text x="75" y="670" font-size="12" fill="#000000">NOME SOBRENOME</text>
      </g>

      <g id="city-state">
        <circle cx="54" cy="714" r="16" fill="none" stroke="#000000" stroke-width="2" />
        <path d="M54 703C49 703 46 707 46 712C46 718 54 724 54 724C54 724 62 718 62 712C62 707 59 703 54 703ZM54 715C52.4 715 51 713.6 51 712C51 710.4 52.4 709 54 709C55.6 709 57 710.4 57 712C57 713.6 55.6 715 54 715Z" fill="#1AA6BE" stroke="#000000" stroke-width="1" />
        <text x="75" y="711" font-size="13" font-weight="900" fill="#1AA6BE">LOCALIZAÇÃO</text>
        <text x="75" y="728" font-size="12" fill="#000000">CIDADE- ESTADO</text>
      </g>

      <g id="proposal-date">
        <circle cx="54" cy="771" r="16" fill="none" stroke="#000000" stroke-width="2" />
        <rect x="46" y="763" width="16" height="16" rx="2" fill="#1AA6BE" stroke="#000000" stroke-width="1" />
        <path d="M46 768H62M50 760V766M58 760V766M50 772H52M56 772H58M50 776H52M56 776H58" stroke="#FFFFFF" stroke-width="1.5" />
        <text x="75" y="768" font-size="13" font-weight="900" fill="#1AA6BE">DATA</text>
        <text x="75" y="785" font-size="12" fill="#000000">DD / MM / AA</text>
        <text x="75" y="805" font-size="10" fill="#000000">validade: 7 dias</text>
      </g>

      <g id="project-power">
        <circle cx="395" cy="700" r="16" fill="none" stroke="#000000" stroke-width="2" />
        <path d="M391 702H397L394 712L405 697H399L402 688L391 702Z" fill="#1AA6BE" stroke="#000000" stroke-width="1" />
        <text x="418" y="697" font-size="13" font-weight="900" fill="#1AA6BE">POTÊNCIA NOMINAL</text>
        <text x="418" y="723" font-size="21" font-weight="900" fill="#000000">0.00 kWp</text>
      </g>
    </g>
  </g>
</svg>
